<mxfile host="app.diagrams.net" modified="2024-04-29T03:52:41.241Z" agent="Mozilla/5.0 (Windows NT 10.0; Win64; x64) AppleWebKit/537.36 (KHTML, like Gecko) Chrome/122.0.0.0 Safari/537.36 OPR/108.0.0.0" etag="W4hqf_kMbjOf0sZJzD2r" version="24.3.1" type="google">
  <diagram name="Page-1" id="fUymcxkhTA2WQPW5B2aJ">
    <mxGraphModel grid="1" page="1" gridSize="10" guides="1" tooltips="1" connect="1" arrows="1" fold="1" pageScale="1" pageWidth="827" pageHeight="1169" math="0" shadow="0">
      <root>
        <mxCell id="0" />
        <mxCell id="1" parent="0" />
        <mxCell id="z0_lB8GhtifIfHxTaBGQ-3" value="" style="endArrow=none;html=1;rounded=0;exitX=1;exitY=0.5;exitDx=0;exitDy=0;entryX=0;entryY=0.5;entryDx=0;entryDy=0;" edge="1" parent="1" target="z0_lB8GhtifIfHxTaBGQ-5">
          <mxGeometry relative="1" as="geometry">
            <mxPoint x="180.00000000000136" y="260" as="sourcePoint" />
            <mxPoint x="220" y="260" as="targetPoint" />
          </mxGeometry>
        </mxCell>
        <mxCell id="z0_lB8GhtifIfHxTaBGQ-5" value="crea" style="shape=rhombus;perimeter=rhombusPerimeter;whiteSpace=wrap;html=1;align=center;" vertex="1" parent="1">
          <mxGeometry x="254" y="225" width="160" height="70" as="geometry" />
        </mxCell>
        <mxCell id="z0_lB8GhtifIfHxTaBGQ-9" value="" style="endArrow=none;html=1;rounded=0;exitX=1;exitY=0.5;exitDx=0;exitDy=0;entryX=0;entryY=0.5;entryDx=0;entryDy=0;" edge="1" parent="1" source="z0_lB8GhtifIfHxTaBGQ-5">
          <mxGeometry relative="1" as="geometry">
            <mxPoint x="420" y="260" as="sourcePoint" />
            <mxPoint x="520" y="260" as="targetPoint" />
          </mxGeometry>
        </mxCell>
        <mxCell id="z0_lB8GhtifIfHxTaBGQ-11" value="UTENTE" style="rounded=1;arcSize=10;whiteSpace=wrap;html=1;align=center;" vertex="1" parent="1">
          <mxGeometry x="80" y="240" width="100" height="40" as="geometry" />
        </mxCell>
        <mxCell id="z0_lB8GhtifIfHxTaBGQ-12" value="Stanza" style="whiteSpace=wrap;html=1;align=center;" vertex="1" parent="1">
          <mxGeometry x="510" y="240" width="100" height="40" as="geometry" />
        </mxCell>
        <mxCell id="z0_lB8GhtifIfHxTaBGQ-14" value="password" style="ellipse;whiteSpace=wrap;html=1;align=center;" vertex="1" parent="1">
          <mxGeometry x="180" y="330" width="100" height="40" as="geometry" />
        </mxCell>
        <mxCell id="z0_lB8GhtifIfHxTaBGQ-15" value="" style="endArrow=none;html=1;rounded=0;exitX=0.118;exitY=1.015;exitDx=0;exitDy=0;exitPerimeter=0;" edge="1" parent="1" source="z0_lB8GhtifIfHxTaBGQ-11">
          <mxGeometry relative="1" as="geometry">
            <mxPoint x="110" y="290" as="sourcePoint" />
            <mxPoint x="75.25803916095742" y="340.1108953476835" as="targetPoint" />
          </mxGeometry>
        </mxCell>
        <mxCell id="z0_lB8GhtifIfHxTaBGQ-16" value="" style="endArrow=none;html=1;rounded=0;exitX=0.75;exitY=1;exitDx=0;exitDy=0;entryX=0;entryY=0;entryDx=0;entryDy=0;" edge="1" parent="1" source="z0_lB8GhtifIfHxTaBGQ-11" target="z0_lB8GhtifIfHxTaBGQ-14">
          <mxGeometry relative="1" as="geometry">
            <mxPoint x="102" y="291" as="sourcePoint" />
            <mxPoint x="85" y="350" as="targetPoint" />
          </mxGeometry>
        </mxCell>
        <mxCell id="z0_lB8GhtifIfHxTaBGQ-17" value="Privata" style="ellipse;whiteSpace=wrap;html=1;align=center;" vertex="1" parent="1">
          <mxGeometry x="520" y="300" width="100" height="40" as="geometry" />
        </mxCell>
        <mxCell id="z0_lB8GhtifIfHxTaBGQ-18" value="Privata" style="ellipse;whiteSpace=wrap;html=1;align=center;" vertex="1" parent="1">
          <mxGeometry x="640" y="290" width="100" height="40" as="geometry" />
        </mxCell>
        <mxCell id="z0_lB8GhtifIfHxTaBGQ-20" value="Nome" style="ellipse;whiteSpace=wrap;html=1;align=center;fontStyle=4;" vertex="1" parent="1">
          <mxGeometry x="390" y="340" width="100" height="40" as="geometry" />
        </mxCell>
        <mxCell id="z0_lB8GhtifIfHxTaBGQ-21" value="" style="endArrow=none;html=1;rounded=0;exitX=0;exitY=1;exitDx=0;exitDy=0;" edge="1" parent="1" source="z0_lB8GhtifIfHxTaBGQ-12" target="z0_lB8GhtifIfHxTaBGQ-20">
          <mxGeometry relative="1" as="geometry">
            <mxPoint x="490" y="320" as="sourcePoint" />
            <mxPoint x="650" y="320" as="targetPoint" />
          </mxGeometry>
        </mxCell>
        <mxCell id="z0_lB8GhtifIfHxTaBGQ-22" value="" style="endArrow=none;html=1;rounded=0;exitX=0.312;exitY=1.055;exitDx=0;exitDy=0;exitPerimeter=0;" edge="1" parent="1" source="z0_lB8GhtifIfHxTaBGQ-12" target="z0_lB8GhtifIfHxTaBGQ-17">
          <mxGeometry relative="1" as="geometry">
            <mxPoint x="520" y="290" as="sourcePoint" />
            <mxPoint x="467" y="351" as="targetPoint" />
          </mxGeometry>
        </mxCell>
        <mxCell id="z0_lB8GhtifIfHxTaBGQ-23" value="" style="endArrow=none;html=1;rounded=0;exitX=1;exitY=1;exitDx=0;exitDy=0;entryX=0.015;entryY=0.325;entryDx=0;entryDy=0;entryPerimeter=0;" edge="1" parent="1" source="z0_lB8GhtifIfHxTaBGQ-12" target="z0_lB8GhtifIfHxTaBGQ-18">
          <mxGeometry relative="1" as="geometry">
            <mxPoint x="551" y="292" as="sourcePoint" />
            <mxPoint x="565" y="311" as="targetPoint" />
          </mxGeometry>
        </mxCell>
        <mxCell id="z0_lB8GhtifIfHxTaBGQ-24" value="" style="endArrow=none;html=1;rounded=0;exitX=0.75;exitY=0;exitDx=0;exitDy=0;entryX=0.5;entryY=1;entryDx=0;entryDy=0;" edge="1" parent="1" source="z0_lB8GhtifIfHxTaBGQ-11" target="z0_lB8GhtifIfHxTaBGQ-25">
          <mxGeometry relative="1" as="geometry">
            <mxPoint x="240" y="290" as="sourcePoint" />
            <mxPoint x="155" y="170" as="targetPoint" />
          </mxGeometry>
        </mxCell>
        <mxCell id="z0_lB8GhtifIfHxTaBGQ-25" value="Fa" style="shape=rhombus;perimeter=rhombusPerimeter;whiteSpace=wrap;html=1;align=center;" vertex="1" parent="1">
          <mxGeometry x="-10" y="110" width="160" height="70" as="geometry" />
        </mxCell>
        <mxCell id="z0_lB8GhtifIfHxTaBGQ-26" value="" style="endArrow=none;html=1;rounded=0;exitX=0.5;exitY=0;exitDx=0;exitDy=0;" edge="1" parent="1" source="z0_lB8GhtifIfHxTaBGQ-25">
          <mxGeometry relative="1" as="geometry">
            <mxPoint x="260" y="170" as="sourcePoint" />
            <mxPoint x="160" y="40" as="targetPoint" />
          </mxGeometry>
        </mxCell>
        <mxCell id="z0_lB8GhtifIfHxTaBGQ-27" value="Disegni" style="whiteSpace=wrap;html=1;align=center;" vertex="1" parent="1">
          <mxGeometry x="120" width="100" height="40" as="geometry" />
        </mxCell>
        <mxCell id="z0_lB8GhtifIfHxTaBGQ-28" value="Spessore" style="ellipse;whiteSpace=wrap;html=1;align=center;" vertex="1" parent="1">
          <mxGeometry x="200" y="-70" width="100" height="40" as="geometry" />
        </mxCell>
        <mxCell id="z0_lB8GhtifIfHxTaBGQ-29" value="Colori" style="ellipse;whiteSpace=wrap;html=1;align=center;" vertex="1" parent="1">
          <mxGeometry x="-30" y="-50" width="100" height="40" as="geometry" />
        </mxCell>
        <mxCell id="z0_lB8GhtifIfHxTaBGQ-30" value="" style="endArrow=none;html=1;rounded=0;exitX=1;exitY=1;exitDx=0;exitDy=0;entryX=0;entryY=0;entryDx=0;entryDy=0;" edge="1" parent="1" source="z0_lB8GhtifIfHxTaBGQ-29" target="z0_lB8GhtifIfHxTaBGQ-27">
          <mxGeometry relative="1" as="geometry">
            <mxPoint x="220" y="100" as="sourcePoint" />
            <mxPoint x="380" y="100" as="targetPoint" />
          </mxGeometry>
        </mxCell>
        <mxCell id="z0_lB8GhtifIfHxTaBGQ-31" value="" style="endArrow=none;html=1;rounded=0;exitX=0.5;exitY=1;exitDx=0;exitDy=0;entryX=0.848;entryY=0.07;entryDx=0;entryDy=0;entryPerimeter=0;" edge="1" parent="1" source="z0_lB8GhtifIfHxTaBGQ-28" target="z0_lB8GhtifIfHxTaBGQ-27">
          <mxGeometry relative="1" as="geometry">
            <mxPoint x="65" y="-6" as="sourcePoint" />
            <mxPoint x="130" y="10" as="targetPoint" />
          </mxGeometry>
        </mxCell>
        <mxCell id="z0_lB8GhtifIfHxTaBGQ-32" value="Indovina" style="shape=rhombus;perimeter=rhombusPerimeter;whiteSpace=wrap;html=1;align=center;" vertex="1" parent="1">
          <mxGeometry x="210" y="110" width="160" height="70" as="geometry" />
        </mxCell>
        <mxCell id="z0_lB8GhtifIfHxTaBGQ-33" value="" style="endArrow=none;html=1;rounded=0;exitX=1;exitY=0;exitDx=0;exitDy=0;entryX=0;entryY=1;entryDx=0;entryDy=0;" edge="1" parent="1" source="z0_lB8GhtifIfHxTaBGQ-11" target="z0_lB8GhtifIfHxTaBGQ-32">
          <mxGeometry relative="1" as="geometry">
            <mxPoint x="165" y="250" as="sourcePoint" />
            <mxPoint x="80" y="190" as="targetPoint" />
          </mxGeometry>
        </mxCell>
        <mxCell id="z0_lB8GhtifIfHxTaBGQ-34" value="" style="endArrow=none;html=1;rounded=0;exitX=0.658;exitY=1.061;exitDx=0;exitDy=0;entryX=0;entryY=0;entryDx=0;entryDy=0;exitPerimeter=0;" edge="1" parent="1" source="z0_lB8GhtifIfHxTaBGQ-27" target="z0_lB8GhtifIfHxTaBGQ-32">
          <mxGeometry relative="1" as="geometry">
            <mxPoint x="175" y="260" as="sourcePoint" />
            <mxPoint x="260" y="173" as="targetPoint" />
          </mxGeometry>
        </mxCell>
        <mxCell id="z0_lB8GhtifIfHxTaBGQ-35" value="Effettua" style="shape=rhombus;perimeter=rhombusPerimeter;whiteSpace=wrap;html=1;align=center;" vertex="1" parent="1">
          <mxGeometry x="-300" y="225" width="160" height="70" as="geometry" />
        </mxCell>
        <mxCell id="z0_lB8GhtifIfHxTaBGQ-36" value="Registrazione" style="whiteSpace=wrap;html=1;align=center;" vertex="1" parent="1">
          <mxGeometry x="-280" y="410" width="100" height="40" as="geometry" />
        </mxCell>
        <mxCell id="z0_lB8GhtifIfHxTaBGQ-37" value="" style="endArrow=none;html=1;rounded=0;exitX=1;exitY=0.5;exitDx=0;exitDy=0;entryX=0;entryY=0.5;entryDx=0;entryDy=0;" edge="1" parent="1" source="z0_lB8GhtifIfHxTaBGQ-35" target="z0_lB8GhtifIfHxTaBGQ-11">
          <mxGeometry relative="1" as="geometry">
            <mxPoint x="165" y="290" as="sourcePoint" />
            <mxPoint x="205" y="346" as="targetPoint" />
          </mxGeometry>
        </mxCell>
        <mxCell id="z0_lB8GhtifIfHxTaBGQ-38" value="" style="endArrow=none;html=1;rounded=0;exitX=0.5;exitY=1;exitDx=0;exitDy=0;entryX=0.561;entryY=-0.079;entryDx=0;entryDy=0;entryPerimeter=0;" edge="1" parent="1" source="z0_lB8GhtifIfHxTaBGQ-35" target="z0_lB8GhtifIfHxTaBGQ-36">
          <mxGeometry relative="1" as="geometry">
            <mxPoint x="-130" y="270" as="sourcePoint" />
            <mxPoint x="90" y="270" as="targetPoint" />
          </mxGeometry>
        </mxCell>
        <mxCell id="z0_lB8GhtifIfHxTaBGQ-40" value="Username" style="ellipse;whiteSpace=wrap;html=1;align=center;fontStyle=4;" vertex="1" parent="1">
          <mxGeometry x="-140" y="490" width="100" height="40" as="geometry" />
        </mxCell>
        <mxCell id="z0_lB8GhtifIfHxTaBGQ-41" value="password" style="ellipse;whiteSpace=wrap;html=1;align=center;" vertex="1" parent="1">
          <mxGeometry x="-360" y="510" width="100" height="40" as="geometry" />
        </mxCell>
        <mxCell id="z0_lB8GhtifIfHxTaBGQ-42" value="Username" style="ellipse;whiteSpace=wrap;html=1;align=center;fontStyle=4;" vertex="1" parent="1">
          <mxGeometry x="10" y="330" width="100" height="40" as="geometry" />
        </mxCell>
        <mxCell id="z0_lB8GhtifIfHxTaBGQ-43" value="" style="endArrow=none;html=1;rounded=0;exitX=0.118;exitY=1.015;exitDx=0;exitDy=0;exitPerimeter=0;" edge="1" parent="1">
          <mxGeometry relative="1" as="geometry">
            <mxPoint x="-263.26" y="450" as="sourcePoint" />
            <mxPoint x="-280.00196083904257" y="509.1108953476835" as="targetPoint" />
          </mxGeometry>
        </mxCell>
        <mxCell id="z0_lB8GhtifIfHxTaBGQ-44" value="" style="endArrow=none;html=1;rounded=0;exitX=0.75;exitY=1;exitDx=0;exitDy=0;entryX=0;entryY=0;entryDx=0;entryDy=0;" edge="1" parent="1">
          <mxGeometry relative="1" as="geometry">
            <mxPoint x="-180" y="454" as="sourcePoint" />
            <mxPoint x="-140" y="510" as="targetPoint" />
          </mxGeometry>
        </mxCell>
      </root>
    </mxGraphModel>
  </diagram>
</mxfile>
